<mxfile host="app.diagrams.net" modified="2023-05-06T09:09:58.497Z" agent="Mozilla/5.0 (X11; Linux x86_64) AppleWebKit/537.36 (KHTML, like Gecko) Chrome/110.0.0.0 YaBrowser/23.3.1.912 Yowser/2.5 Safari/537.36" version="21.2.9" etag="Zja4aIYcdM0NWYVMgUQn" type="github">
  <diagram name="Страница 1" id="M6GrWcGtka0p14lVOvHS">
    <mxGraphModel>
      <root>
        <mxCell id="0" />
        <mxCell id="1" parent="0" />
      </root>
    </mxGraphModel>
  </diagram>
</mxfile>
